<mxfile host="Electron" modified="2024-04-24T15:23:02.485Z" agent="Mozilla/5.0 (Windows NT 10.0; Win64; x64) AppleWebKit/537.36 (KHTML, like Gecko) draw.io/24.2.5 Chrome/120.0.6099.109 Electron/28.1.0 Safari/537.36" etag="2AxrF9Jnx1g-ZPDJ-3XI" version="24.2.5" type="device">
  <diagram id="C5RBs43oDa-KdzZeNtuy" name="Page-1">
    <mxGraphModel dx="1098" dy="828" grid="1" gridSize="10" guides="1" tooltips="1" connect="1" arrows="1" fold="1" page="1" pageScale="1" pageWidth="827" pageHeight="1169" math="0" shadow="0">
      <root>
        <mxCell id="WIyWlLk6GJQsqaUBKTNV-0" />
        <mxCell id="WIyWlLk6GJQsqaUBKTNV-1" parent="WIyWlLk6GJQsqaUBKTNV-0" />
        <mxCell id="mNC6Q3KWY45OqwdI3xBD-2" value="" style="edgeStyle=orthogonalEdgeStyle;rounded=0;orthogonalLoop=1;jettySize=auto;html=1;fontSize=14;entryX=0.5;entryY=0;entryDx=0;entryDy=0;labelBackgroundColor=none;strokeColor=#A8201A;fontColor=default;sketch=1;curveFitting=1;jiggle=2;" parent="WIyWlLk6GJQsqaUBKTNV-1" target="mNC6Q3KWY45OqwdI3xBD-1" edge="1">
          <mxGeometry relative="1" as="geometry">
            <mxPoint x="180" y="170" as="sourcePoint" />
          </mxGeometry>
        </mxCell>
        <mxCell id="mNC6Q3KWY45OqwdI3xBD-0" value="CountArray" style="rounded=1;whiteSpace=wrap;html=1;fontSize=14;fontStyle=1;labelBackgroundColor=none;fillColor=#FAE5C7;strokeColor=#0F8B8D;fontColor=#143642;sketch=1;curveFitting=1;jiggle=2;" parent="WIyWlLk6GJQsqaUBKTNV-1" vertex="1">
          <mxGeometry x="120" y="130" width="120" height="40" as="geometry" />
        </mxCell>
        <mxCell id="mNC6Q3KWY45OqwdI3xBD-4" value="" style="edgeStyle=orthogonalEdgeStyle;rounded=0;orthogonalLoop=1;jettySize=auto;html=1;labelBackgroundColor=none;strokeColor=#A8201A;fontColor=default;sketch=1;curveFitting=1;jiggle=2;" parent="WIyWlLk6GJQsqaUBKTNV-1" source="mNC6Q3KWY45OqwdI3xBD-1" edge="1">
          <mxGeometry relative="1" as="geometry">
            <mxPoint x="180" y="330" as="targetPoint" />
          </mxGeometry>
        </mxCell>
        <mxCell id="mNC6Q3KWY45OqwdI3xBD-1" value="array1&lt;div style=&quot;font-size: 14px;&quot;&gt;array2&lt;/div&gt;&lt;div style=&quot;font-size: 14px;&quot;&gt;count = 0&lt;/div&gt;" style="shape=parallelogram;perimeter=parallelogramPerimeter;whiteSpace=wrap;html=1;fixedSize=1;rounded=1;fontSize=14;labelBackgroundColor=none;fillColor=#FAE5C7;strokeColor=#0F8B8D;fontColor=#143642;sketch=1;curveFitting=1;jiggle=2;" parent="WIyWlLk6GJQsqaUBKTNV-1" vertex="1">
          <mxGeometry x="107.5" y="210" width="145" height="70" as="geometry" />
        </mxCell>
        <mxCell id="mNC6Q3KWY45OqwdI3xBD-7" value="" style="edgeStyle=orthogonalEdgeStyle;rounded=0;orthogonalLoop=1;jettySize=auto;html=1;labelBackgroundColor=none;strokeColor=#A8201A;fontColor=default;sketch=1;curveFitting=1;jiggle=2;" parent="WIyWlLk6GJQsqaUBKTNV-1" source="mNC6Q3KWY45OqwdI3xBD-5" target="mNC6Q3KWY45OqwdI3xBD-6" edge="1">
          <mxGeometry relative="1" as="geometry" />
        </mxCell>
        <mxCell id="mNC6Q3KWY45OqwdI3xBD-10" value="Yes" style="edgeLabel;html=1;align=center;verticalAlign=middle;resizable=0;points=[];fontSize=13;fontStyle=1;labelBackgroundColor=none;fontColor=#143642;sketch=1;curveFitting=1;jiggle=2;" parent="mNC6Q3KWY45OqwdI3xBD-7" vertex="1" connectable="0">
          <mxGeometry x="-0.2857" y="2" relative="1" as="geometry">
            <mxPoint x="8" y="5" as="offset" />
          </mxGeometry>
        </mxCell>
        <mxCell id="mNC6Q3KWY45OqwdI3xBD-15" style="edgeStyle=orthogonalEdgeStyle;rounded=0;orthogonalLoop=1;jettySize=auto;html=1;exitX=1;exitY=0.5;exitDx=0;exitDy=0;labelBackgroundColor=none;strokeColor=#A8201A;fontColor=default;sketch=1;curveFitting=1;jiggle=2;" parent="WIyWlLk6GJQsqaUBKTNV-1" source="mNC6Q3KWY45OqwdI3xBD-5" edge="1">
          <mxGeometry relative="1" as="geometry">
            <mxPoint x="310" y="370" as="targetPoint" />
          </mxGeometry>
        </mxCell>
        <mxCell id="mNC6Q3KWY45OqwdI3xBD-16" value="No" style="edgeLabel;html=1;align=center;verticalAlign=middle;resizable=0;points=[];fontStyle=1;fontSize=13;labelBackgroundColor=none;fontColor=#143642;sketch=1;curveFitting=1;jiggle=2;" parent="mNC6Q3KWY45OqwdI3xBD-15" vertex="1" connectable="0">
          <mxGeometry x="-0.1736" y="-1" relative="1" as="geometry">
            <mxPoint y="-11" as="offset" />
          </mxGeometry>
        </mxCell>
        <mxCell id="mNC6Q3KWY45OqwdI3xBD-5" value="&lt;span style=&quot;font-size: 14px;&quot;&gt;i = 0,&lt;/span&gt;&lt;div style=&quot;font-size: 14px;&quot;&gt;i &amp;lt; array1.Length,&lt;/div&gt;&lt;div style=&quot;font-size: 14px;&quot;&gt;i++&lt;/div&gt;" style="shape=hexagon;perimeter=hexagonPerimeter2;whiteSpace=wrap;html=1;fixedSize=1;labelBackgroundColor=none;fillColor=#FAE5C7;strokeColor=#0F8B8D;fontColor=#143642;sketch=1;curveFitting=1;jiggle=2;" parent="WIyWlLk6GJQsqaUBKTNV-1" vertex="1">
          <mxGeometry x="110" y="330" width="140" height="80" as="geometry" />
        </mxCell>
        <mxCell id="mNC6Q3KWY45OqwdI3xBD-9" value="" style="edgeStyle=orthogonalEdgeStyle;rounded=0;orthogonalLoop=1;jettySize=auto;html=1;labelBackgroundColor=none;strokeColor=#A8201A;fontColor=default;sketch=1;curveFitting=1;jiggle=2;" parent="WIyWlLk6GJQsqaUBKTNV-1" source="mNC6Q3KWY45OqwdI3xBD-6" target="mNC6Q3KWY45OqwdI3xBD-8" edge="1">
          <mxGeometry relative="1" as="geometry" />
        </mxCell>
        <mxCell id="mNC6Q3KWY45OqwdI3xBD-11" value="Yes" style="edgeLabel;html=1;align=center;verticalAlign=middle;resizable=0;points=[];fontSize=13;fontStyle=1;labelBackgroundColor=none;fontColor=#143642;sketch=1;curveFitting=1;jiggle=2;" parent="mNC6Q3KWY45OqwdI3xBD-9" vertex="1" connectable="0">
          <mxGeometry x="-0.1" y="2" relative="1" as="geometry">
            <mxPoint x="8" as="offset" />
          </mxGeometry>
        </mxCell>
        <mxCell id="mNC6Q3KWY45OqwdI3xBD-13" style="edgeStyle=orthogonalEdgeStyle;rounded=0;orthogonalLoop=1;jettySize=auto;html=1;exitX=0;exitY=0.5;exitDx=0;exitDy=0;labelBackgroundColor=none;strokeColor=#A8201A;fontColor=default;sketch=1;curveFitting=1;jiggle=2;" parent="WIyWlLk6GJQsqaUBKTNV-1" source="mNC6Q3KWY45OqwdI3xBD-6" edge="1">
          <mxGeometry relative="1" as="geometry">
            <mxPoint x="40" y="520" as="targetPoint" />
          </mxGeometry>
        </mxCell>
        <mxCell id="mNC6Q3KWY45OqwdI3xBD-14" value="No" style="edgeLabel;html=1;align=center;verticalAlign=middle;resizable=0;points=[];fontStyle=1;fontSize=13;labelBackgroundColor=none;fontColor=#143642;sketch=1;curveFitting=1;jiggle=2;" parent="mNC6Q3KWY45OqwdI3xBD-13" vertex="1" connectable="0">
          <mxGeometry x="-0.0496" y="-2" relative="1" as="geometry">
            <mxPoint x="4" y="-8" as="offset" />
          </mxGeometry>
        </mxCell>
        <mxCell id="mNC6Q3KWY45OqwdI3xBD-6" value="array1[i].Length &amp;lt;= 3" style="rhombus;whiteSpace=wrap;html=1;labelBackgroundColor=none;fillColor=#FAE5C7;strokeColor=#0F8B8D;fontColor=#143642;sketch=1;curveFitting=1;jiggle=2;" parent="WIyWlLk6GJQsqaUBKTNV-1" vertex="1">
          <mxGeometry x="110" y="480" width="140" height="80" as="geometry" />
        </mxCell>
        <mxCell id="mNC6Q3KWY45OqwdI3xBD-12" style="edgeStyle=orthogonalEdgeStyle;rounded=0;orthogonalLoop=1;jettySize=auto;html=1;exitX=0.5;exitY=1;exitDx=0;exitDy=0;entryX=0;entryY=0.5;entryDx=0;entryDy=0;labelBackgroundColor=none;strokeColor=#A8201A;fontColor=default;sketch=1;curveFitting=1;jiggle=2;" parent="WIyWlLk6GJQsqaUBKTNV-1" source="mNC6Q3KWY45OqwdI3xBD-8" target="mNC6Q3KWY45OqwdI3xBD-5" edge="1">
          <mxGeometry relative="1" as="geometry">
            <mxPoint x="70" y="370" as="targetPoint" />
            <Array as="points">
              <mxPoint x="180" y="700" />
              <mxPoint x="40" y="700" />
              <mxPoint x="40" y="370" />
            </Array>
          </mxGeometry>
        </mxCell>
        <mxCell id="mNC6Q3KWY45OqwdI3xBD-8" value="&lt;div&gt;array2[count] = array1[i]&lt;/div&gt;&lt;div&gt;count++&lt;/div&gt;" style="whiteSpace=wrap;html=1;labelBackgroundColor=none;fillColor=#FAE5C7;strokeColor=#0F8B8D;fontColor=#143642;sketch=1;curveFitting=1;jiggle=2;" parent="WIyWlLk6GJQsqaUBKTNV-1" vertex="1">
          <mxGeometry x="105" y="620" width="150" height="60" as="geometry" />
        </mxCell>
        <mxCell id="mNC6Q3KWY45OqwdI3xBD-17" value="count == 0" style="rhombus;whiteSpace=wrap;html=1;labelBackgroundColor=none;fillColor=#FAE5C7;strokeColor=#0F8B8D;fontColor=#143642;sketch=1;curveFitting=1;jiggle=2;" parent="WIyWlLk6GJQsqaUBKTNV-1" vertex="1">
          <mxGeometry x="315" y="330" width="100" height="80" as="geometry" />
        </mxCell>
        <mxCell id="mNC6Q3KWY45OqwdI3xBD-20" value="print(&quot;Увы! Массив пуст!&quot;)" style="shape=document;whiteSpace=wrap;html=1;boundedLbl=1;labelBackgroundColor=none;fillColor=#FAE5C7;strokeColor=#0F8B8D;fontColor=#143642;sketch=1;curveFitting=1;jiggle=2;" parent="WIyWlLk6GJQsqaUBKTNV-1" vertex="1">
          <mxGeometry x="290" y="480" width="150" height="80" as="geometry" />
        </mxCell>
        <mxCell id="mNC6Q3KWY45OqwdI3xBD-21" value="print(array2)" style="shape=document;whiteSpace=wrap;html=1;boundedLbl=1;labelBackgroundColor=none;fillColor=#FAE5C7;strokeColor=#0F8B8D;fontColor=#143642;sketch=1;curveFitting=1;jiggle=2;" parent="WIyWlLk6GJQsqaUBKTNV-1" vertex="1">
          <mxGeometry x="490" y="350" width="100" height="50" as="geometry" />
        </mxCell>
        <mxCell id="mNC6Q3KWY45OqwdI3xBD-24" value="" style="edgeStyle=orthogonalEdgeStyle;rounded=0;orthogonalLoop=1;jettySize=auto;html=1;labelBackgroundColor=none;strokeColor=#A8201A;fontColor=default;sketch=1;curveFitting=1;jiggle=2;" parent="WIyWlLk6GJQsqaUBKTNV-1" edge="1">
          <mxGeometry relative="1" as="geometry">
            <mxPoint x="364.86" y="410" as="sourcePoint" />
            <mxPoint x="364.86" y="480" as="targetPoint" />
          </mxGeometry>
        </mxCell>
        <mxCell id="mNC6Q3KWY45OqwdI3xBD-25" value="Yes" style="edgeLabel;html=1;align=center;verticalAlign=middle;resizable=0;points=[];fontSize=13;fontStyle=1;labelBackgroundColor=none;fontColor=#143642;sketch=1;curveFitting=1;jiggle=2;" parent="mNC6Q3KWY45OqwdI3xBD-24" vertex="1" connectable="0">
          <mxGeometry x="-0.2857" y="2" relative="1" as="geometry">
            <mxPoint x="13" y="5" as="offset" />
          </mxGeometry>
        </mxCell>
        <mxCell id="mNC6Q3KWY45OqwdI3xBD-26" style="edgeStyle=orthogonalEdgeStyle;rounded=0;orthogonalLoop=1;jettySize=auto;html=1;exitX=1;exitY=0.5;exitDx=0;exitDy=0;entryX=-0.024;entryY=0.399;entryDx=0;entryDy=0;entryPerimeter=0;labelBackgroundColor=none;strokeColor=#A8201A;fontColor=default;sketch=1;curveFitting=1;jiggle=2;" parent="WIyWlLk6GJQsqaUBKTNV-1" source="mNC6Q3KWY45OqwdI3xBD-17" target="mNC6Q3KWY45OqwdI3xBD-21" edge="1">
          <mxGeometry relative="1" as="geometry">
            <mxPoint x="470" y="369.71" as="targetPoint" />
            <mxPoint x="420" y="370" as="sourcePoint" />
          </mxGeometry>
        </mxCell>
        <mxCell id="mNC6Q3KWY45OqwdI3xBD-27" value="No" style="edgeLabel;html=1;align=center;verticalAlign=middle;resizable=0;points=[];fontStyle=1;fontSize=13;labelBackgroundColor=none;fontColor=#143642;sketch=1;curveFitting=1;jiggle=2;" parent="mNC6Q3KWY45OqwdI3xBD-26" vertex="1" connectable="0">
          <mxGeometry x="-0.1736" y="-1" relative="1" as="geometry">
            <mxPoint x="5" y="-11" as="offset" />
          </mxGeometry>
        </mxCell>
        <mxCell id="z6xv7XHHWdqG4J1flFMi-2" style="edgeStyle=orthogonalEdgeStyle;rounded=0;sketch=1;hachureGap=4;jiggle=2;curveFitting=1;orthogonalLoop=1;jettySize=auto;html=1;entryX=0.5;entryY=0;entryDx=0;entryDy=0;fontFamily=Architects Daughter;fontSource=https%3A%2F%2Ffonts.googleapis.com%2Fcss%3Ffamily%3DArchitects%2BDaughter;strokeColor=#d73737;" parent="WIyWlLk6GJQsqaUBKTNV-1" source="z6xv7XHHWdqG4J1flFMi-1" target="mNC6Q3KWY45OqwdI3xBD-0" edge="1">
          <mxGeometry relative="1" as="geometry" />
        </mxCell>
        <mxCell id="z6xv7XHHWdqG4J1flFMi-1" value="Start" style="rounded=1;whiteSpace=wrap;html=1;fontSize=14;fontStyle=1;labelBackgroundColor=none;fillColor=#FAE5C7;strokeColor=#0F8B8D;fontColor=#143642;sketch=1;curveFitting=1;jiggle=2;arcSize=50;" parent="WIyWlLk6GJQsqaUBKTNV-1" vertex="1">
          <mxGeometry x="140" y="50" width="80" height="40" as="geometry" />
        </mxCell>
        <mxCell id="z6xv7XHHWdqG4J1flFMi-3" style="edgeStyle=orthogonalEdgeStyle;rounded=0;sketch=1;hachureGap=4;jiggle=2;curveFitting=1;orthogonalLoop=1;jettySize=auto;html=1;fontFamily=Architects Daughter;fontSource=https%3A%2F%2Ffonts.googleapis.com%2Fcss%3Ffamily%3DArchitects%2BDaughter;strokeColor=#d73737;entryX=0;entryY=0.5;entryDx=0;entryDy=0;" parent="WIyWlLk6GJQsqaUBKTNV-1" edge="1">
          <mxGeometry relative="1" as="geometry">
            <mxPoint x="650" y="369.5" as="targetPoint" />
            <mxPoint x="589" y="369.5" as="sourcePoint" />
            <Array as="points">
              <mxPoint x="619" y="369.5" />
              <mxPoint x="619" y="369.5" />
            </Array>
          </mxGeometry>
        </mxCell>
        <mxCell id="z6xv7XHHWdqG4J1flFMi-4" value="End" style="rounded=1;whiteSpace=wrap;html=1;fontSize=14;fontStyle=1;labelBackgroundColor=none;fillColor=#FAE5C7;strokeColor=#0F8B8D;fontColor=#143642;sketch=1;curveFitting=1;jiggle=2;arcSize=50;" parent="WIyWlLk6GJQsqaUBKTNV-1" vertex="1">
          <mxGeometry x="650" y="350" width="70" height="40" as="geometry" />
        </mxCell>
        <mxCell id="SDg24qvs1bRI4vNWfa0F-0" style="edgeStyle=orthogonalEdgeStyle;rounded=0;sketch=1;hachureGap=4;jiggle=2;curveFitting=1;orthogonalLoop=1;jettySize=auto;html=1;fontFamily=Architects Daughter;fontSource=https%3A%2F%2Ffonts.googleapis.com%2Fcss%3Ffamily%3DArchitects%2BDaughter;strokeColor=#d73737;exitX=1;exitY=0.5;exitDx=0;exitDy=0;entryX=0.5;entryY=1;entryDx=0;entryDy=0;" parent="WIyWlLk6GJQsqaUBKTNV-1" source="mNC6Q3KWY45OqwdI3xBD-20" target="z6xv7XHHWdqG4J1flFMi-4" edge="1">
          <mxGeometry relative="1" as="geometry">
            <mxPoint x="650" y="370" as="targetPoint" />
            <mxPoint x="480" y="520" as="sourcePoint" />
            <Array as="points">
              <mxPoint x="685" y="520" />
            </Array>
          </mxGeometry>
        </mxCell>
      </root>
    </mxGraphModel>
  </diagram>
</mxfile>
